<svg viewBox="0 0 900 491" fill="none" xmlns="http://www.w3.org/2000/svg">
    <g opacity="0.800003">
    <g opacity="0.800003">
    <path opacity="0.800003" d="M76.9856 373.652C61.6443 342.852 68.8789 297.767 94.4536 270.191C120.03 242.615 163.26 227.527 202.606 232.444C231.191 236.017 256.427 249.067 284.607 254.12C326.723 261.671 374.227 249.683 406.663 223.317C458.519 181.165 468.532 110.624 524.239 72.2641C567.378 42.5588 629.914 40.5161 677.47 59.9094C725.024 79.3027 758.772 116.988 779.539 158.333C800.306 199.677 809.443 244.939 818.428 289.752C824.036 317.719 829.644 345.685 835.252 373.652H76.9856Z" fill="#EAF3FA"/>
    </g>
    </g>
    <path d="M569.666 101.973C565.566 101.973 562.242 98.6491 562.242 94.5491C562.242 91.2051 564.454 88.3797 567.494 87.4504V78.0717C567.494 76.8717 568.466 75.8997 569.666 75.8997C570.866 75.8997 571.838 76.8717 571.838 78.0717V87.4504C574.878 88.3797 577.09 91.2051 577.09 94.5491C577.09 98.6491 573.766 101.973 569.666 101.973ZM569.666 55.801C551.366 55.801 536.53 70.6371 536.53 88.9357C536.53 107.237 551.366 122.072 569.666 122.072C587.966 122.072 602.802 107.237 602.802 88.9357C602.802 70.6371 587.966 55.801 569.666 55.801Z" fill="#1D95F4"/>
    <path d="M556.905 67.9841C555.665 67.9841 554.447 67.3895 553.699 66.2855L542.773 50.1761C540.239 46.4388 539.311 41.9375 540.161 37.5028C541.012 33.0681 543.539 29.2295 547.276 26.6935C551.013 24.1588 555.516 23.2321 559.949 24.0815C564.385 24.9321 568.224 27.4588 570.759 31.1961L574.901 37.3055C576.1 39.0735 575.64 41.4815 573.871 42.6801C572.1 43.8801 569.695 43.4188 568.495 41.6495L564.352 35.5415C562.979 33.5148 560.897 32.1455 558.492 31.6841C556.087 31.2228 553.647 31.7268 551.621 33.1001C549.595 34.4748 548.224 36.5561 547.764 38.9601C547.303 41.3655 547.805 43.8055 549.18 45.8321L560.105 61.9415C561.304 63.7095 560.844 66.1175 559.075 67.3161C558.408 67.7681 557.653 67.9841 556.905 67.9841Z" fill="#1E95F3"/>
    <g opacity="0.5">
    <g opacity="0.5">
    <path opacity="0.5" d="M646.698 411.999C645.471 418.042 665.348 419.706 680.608 418.935C691.462 418.387 709.178 417.916 718.503 417.691C721.032 417.63 722.392 414.694 720.804 412.722C719.098 410.606 720.799 407.482 723.503 407.77C730.138 408.476 742.031 409.158 762.763 408.916C802.531 408.454 805.151 403.214 804.998 400.747C804.843 398.28 777.406 397.048 760.759 397.048C744.112 397.048 648.702 402.135 646.698 411.999Z" fill="#95B1DB"/>
    </g>
    </g>
    <g opacity="0.5">
    <g opacity="0.5">
    <path opacity="0.5" d="M300.364 401.161C300.364 408.424 276.506 410.579 263.73 410.86C250.954 411.141 212.408 408.611 212.408 408.611C212.408 408.611 204.383 413.812 186.694 414.515C169.003 415.217 129.366 415.077 129.366 415.077L164.254 409.313C164.254 409.313 165.072 404.535 174.082 403.411C183.09 402.285 197.339 403.691 197.339 403.691L186.202 394.413L286.279 390.9C286.279 390.9 300.364 389.775 300.364 401.161Z" fill="#95B1DB"/>
    </g>
    </g>
    <path d="M0.77002 374.163H899.23" stroke="#BFCDFE" stroke-width="1.33333" stroke-miterlimit="10" stroke-linecap="round"/>
    <path d="M591.094 311.758C591.094 260.468 632.672 218.889 683.963 218.889C735.254 218.889 776.832 260.468 776.832 311.758C776.832 363.049 735.254 404.628 683.963 404.628C632.672 404.628 591.094 363.049 591.094 311.758Z" fill="#2E106B"/>
    <path d="M683.963 311.758L737.519 235.888C762.151 253.274 776.832 281.609 776.832 311.758C776.832 362.705 734.909 404.628 683.963 404.628C633.016 404.628 591.093 362.705 591.093 311.758C591.093 279.662 607.732 249.761 635.005 232.841L683.963 311.758Z" fill="#324D90"/>
    <path d="M683.963 311.758L771.521 342.713C758.435 379.73 723.225 404.628 683.963 404.628C633.016 404.628 591.093 362.705 591.093 311.758C591.093 279.662 607.732 249.761 635.005 232.841L683.963 311.758Z" fill="#F4A177"/>
    <path d="M335.907 213.519C365.5 213.603 389.535 189.588 389.609 159.86C389.684 130.145 365.688 106.095 335.927 106.053C306.373 106.012 282.451 129.916 282.292 159.645C282.133 189.316 306.137 213.435 335.907 213.519ZM271.285 46.6427C270.38 35.2667 269.576 24.7747 268.661 14.1201C278.465 10.8134 288.272 7.51605 298.079 4.22005C301.575 3.04538 302.736 3.41337 304.813 6.40271C310.305 14.3014 315.823 22.184 321.251 30.128C322.833 32.4454 324.801 33.5187 327.632 33.2427C330.144 33 332.675 32.8667 335.196 32.9507C337.712 33.0347 339.129 31.8374 340.241 29.7374C344.636 21.4361 349.092 13.1667 353.536 4.89339C355.809 0.660057 356.427 0.416052 361.117 1.55072C369.581 3.60005 378.052 5.62671 386.521 7.65604C390.272 8.55338 391.035 9.44138 391.171 13.2134C391.511 22.6774 391.901 32.14 392.143 41.6067C392.243 45.4854 394.081 47.856 398.912 49.016C402.16 52.3574 404.979 52.872 408.148 51.0827C417.777 45.6467 427.476 40.3361 437.137 34.9561C444.508 42.4841 451.885 50.0067 459.261 57.5307C461.887 60.2107 462.017 61.4227 460.063 64.72C455.276 72.8014 450.54 80.9147 445.681 88.952C443.689 92.248 444.08 95.176 447.64 98.7174C448.647 103.343 450.737 105.488 454.452 105.708C464.131 106.281 473.808 106.924 483.481 107.588C487.165 107.84 487.964 108.597 488.768 112.276C490.708 121.155 492.629 130.036 494.567 138.915C495.185 141.753 494.591 143.108 491.948 144.439C483.423 148.729 474.908 153.043 466.332 157.232C463.311 158.708 462 160.96 462.335 164.695C462.496 166.5 462.337 168.323 461.963 170.097C461.261 173.429 462.12 175.808 464.631 177.644C472.46 183.365 480.243 189.151 488.036 194.92C490.972 197.093 491.296 198.225 490.031 201.716C487.084 209.833 484.137 217.949 481.183 226.063C479.941 229.467 478.811 230.121 475.191 229.729C465.852 228.719 456.508 227.773 447.175 226.717C443.305 226.28 440.943 228.26 439.18 233.131C438.856 234.027 438.268 234.823 437.504 235.391C433.453 238.403 432.58 241.307 433.916 244.78C437.899 255.131 441.796 265.515 445.739 275.881C437.929 281.819 430.121 287.756 422.301 293.68C419.527 295.781 418.199 295.752 415.451 293.539C408.253 287.74 401.028 281.975 393.891 276.101C391.036 273.751 388.263 273.544 384.383 276.072C382.288 277.436 379.92 278.401 377.441 278.728C373.435 279.256 371.365 281.001 370.697 284.231C368.781 293.497 366.796 302.751 364.849 312.011C363.956 316.261 363.245 316.985 358.828 317.344C350.907 317.987 342.981 318.605 335.048 319.084C331.899 319.273 330.735 318.275 329.728 315.257C326.732 306.276 323.709 297.305 320.789 288.299C319.829 285.336 317.973 283.784 314.576 283.423C310.719 283.012 306.936 282.019 303.236 280.855C300.012 279.841 297.58 280.401 295.329 282.739C288.865 289.449 282.28 296.045 275.74 302.683C272.987 305.475 271.955 305.625 268.608 303.739C261.812 299.908 255.012 296.081 248.22 292.241C244.795 290.304 244.379 289.277 245.361 285.396C247.989 275.023 250.568 264.637 253.297 254.291C249.052 250.031 244.876 245.7 240.753 241.319C238.975 239.427 236.988 238.835 234.407 239.437C223.783 241.923 213.119 244.236 202.475 246.633C198.095 238.147 193.711 229.663 189.344 221.169C187.851 218.267 188.061 216.961 190.427 214.748C197.343 208.279 204.213 201.76 211.233 195.403C214.377 192.556 214.693 189.429 212.712 184.691C211.876 182.695 211.54 180.536 211.623 178.375C211.789 174.055 210.411 171.624 207.065 170.425C197.583 167.028 188.145 163.505 178.664 160.101C177.172 159.567 176.444 158.901 176.636 157.195C177.681 147.869 178.592 138.527 179.673 129.204C179.98 126.557 181.177 125.697 184.349 125.127C195.119 123.188 205.879 121.201 216.671 119.397C218.855 113.503 221.215 107.643 223.967 101.989C217.387 93.5294 210.957 84.9534 204.488 76.408C202.247 73.4467 202.252 72.1987 204.519 69.38C209.929 62.648 215.343 55.9187 220.764 49.196C222.867 46.588 224.192 46.252 227.267 47.5254C237.513 51.7654 247.777 55.96 257.973 60.32C261.087 58.0227 264.185 55.5867 267.52 53.5694C270.425 51.8107 271.988 49.5187 271.285 46.6427" fill="#CED8FE"/>
    <path d="M361.997 441.962H395.181C401.278 436.593 407.266 431.319 413.229 426.069H380.043C374.013 431.381 368.061 436.621 361.997 441.962ZM291.75 474.202C303.849 463.547 315.947 452.893 328.217 442.089H294.795C307.001 431.341 319.035 420.743 331.189 410.041H498.55C486.497 420.654 474.426 431.285 462.239 442.017H429.099C422.993 447.394 417.001 452.67 410.837 458.098H444.022C431.817 468.846 419.782 479.443 407.635 490.141H374.262C380.257 484.862 386.25 479.583 392.358 474.206H358.874C364.979 468.829 370.973 463.55 377.053 458.197H343.57C337.613 463.442 331.619 468.721 325.439 474.163H291.714L291.75 474.202Z" fill="#324D90"/>
    <path d="M586.608 361.16H575.885V371.884H586.608V361.16ZM499.912 350.321H489.187V361.045H499.912V350.321ZM575.885 306.843H586.608V296.103H575.885V306.843ZM586.608 263.507V231.083H565.055V241.909H575.859V263.507H586.608ZM359.157 371.851H434.905V296.103H359.157V371.851ZM586.608 144.415H510.863V220.163H586.608V144.415ZM359.132 220.137H434.88V144.389H359.132V220.137ZM489.149 220.217H478.261V198.573H467.453V220.136H456.628V218.981C456.623 208.547 456.617 198.113 456.612 187.68H467.509V176.905H478.328V187.708H489.148V198.461H499.931V176.839H489.208V165.988H499.916V144.411H445.839V166.036H456.637V187.705H445.759V274.424H413.321V285.231H445.811V296.079H456.637L456.612 296.052L456.641 306.912H445.855V317.724H456.641C456.641 324.957 456.641 332.189 456.643 339.423H445.86V371.876H478.243V361.045H467.433V350.227H456.616V339.396H478.347V328.623H532.428V339.451H510.861V350.268H521.665V361.096H510.875V371.856H521.64V361.071H543.369V371.873H554.185V350.207H586.625V339.392H564.985V328.564H575.776V317.804H565.011V328.591H554.224V306.86H564.984C564.984 299.58 564.984 292.399 564.985 285.215H575.776V274.455H565.011V285.241H554.148V263.539H564.936V252.725H554.148V241.831H543.291V231.017H489.124V220.191H499.915V209.431H489.149V220.217ZM391.593 241.891V231.105H359.167V252.66H369.957V241.865H391.619V274.316H369.896V263.612H359.164V285.176H402.461V263.511H434.904V252.695H413.263V241.865H434.892V231.103H413.289V241.892C406.057 241.892 398.825 241.892 391.593 241.891ZM326.029 111.277H619.92V405.169H326.029V111.277Z" fill="white"/>
    <path d="M586.608 361.16H575.885V371.884H586.608V361.16ZM499.912 350.321H489.187V361.045H499.912V350.321ZM575.885 306.843H586.608V296.103H575.885V306.843ZM586.608 263.507V231.083H565.055V241.909H575.859V263.507H586.608ZM359.157 371.851H434.905V296.103H359.157V371.851ZM586.608 144.415H510.863V220.163H586.608V144.415ZM359.132 220.137H434.88V144.389H359.132V220.137ZM489.149 220.217H478.261V198.573H467.453V220.136H456.628V218.981C456.623 208.547 456.617 198.113 456.612 187.68H467.509V176.905H478.328V187.708H489.148V198.461H499.931V176.839H489.208V165.988H499.916V144.411H445.839V166.036H456.637V187.705H445.759V274.424H413.321V285.231H445.811V296.079H456.637L456.612 296.052L456.641 306.912H445.855V317.724H456.641C456.641 324.957 456.641 332.189 456.643 339.423H445.86V371.876H478.243V361.045H467.433V350.227H456.616V339.396H478.347V328.623H532.428V339.451H510.861V350.268H521.665V361.096H510.875V371.856H521.64V361.071H543.369V371.873H554.185V350.207H586.625V339.392H564.985V328.564H575.776V317.804H565.011V328.591H554.224V306.86H564.984C564.984 299.58 564.984 292.399 564.985 285.215H575.776V274.455H565.011V285.241H554.148V263.539H564.936V252.725H554.148V241.831H543.291V231.017H489.124V220.191H499.915V209.431H489.149V220.217ZM391.593 241.891V231.105H359.167V252.66H369.957V241.865H391.619V274.316H369.896V263.612H359.164V285.176H402.461V263.511H434.904V252.695H413.263V241.865H434.892V231.103H413.289V241.892C406.057 241.892 398.825 241.892 391.593 241.891ZM326.029 111.277H619.92V405.169H326.029V111.277Z" stroke="#CBC7D5" stroke-width="3.072" stroke-miterlimit="10"/>
    <path d="M456.638 296.079V285.248H467.415V274.431H456.689V252.745H478.259V241.937H510.779V263.505H532.471V274.399L532.498 274.373C522.111 274.377 511.726 274.383 501.341 274.388C500.882 274.388 500.423 274.399 499.966 274.404V263.612H489.206V274.377H499.993V295.999H489.147V285.269H478.335V296.052H456.611L456.638 296.079Z" fill="white"/>
    <path d="M521.641 306.915H543.257V317.675H521.667V306.888L521.641 306.915Z" fill="white"/>
    <path d="M532.471 274.399H543.258V285.164H532.498V274.372L532.471 274.399Z" fill="white"/>
    <path d="M521.667 306.889H510.881V296.124H521.641V306.916L521.667 306.889Z" fill="white"/>
    <path d="M456.615 306.887H467.4V317.749H456.615V306.887Z" fill="white"/>
    <path d="M499.936 317.687H489.213V306.965H499.936V317.687Z" fill="white"/>
    <path d="M521.691 241.925H532.413V252.648H521.691V241.925Z" fill="white"/>
    <path d="M554.175 263.564H543.389V252.701H554.175V263.564Z" fill="white"/>
    <path d="M413.215 166.087H380.815V198.485H413.215V166.087ZM369.995 155.22H424.068V209.292H369.995V155.22Z" fill="white"/>
    <path d="M532.528 198.463H564.927V166.064H532.528V198.463ZM575.797 209.315H521.725V155.244H575.797V209.315Z" fill="white"/>
    <path d="M380.807 350.184H413.205V317.785H380.807V350.184ZM424.073 361.037H370.001V306.964H424.073V361.037Z" fill="white"/>
    <path d="M467.507 155.227H478.229V165.951H467.507V155.227Z" fill="white"/>
    <path d="M413.205 317.785H380.807V350.184H413.205V317.785ZM564.927 166.064H532.528V198.463H564.927V166.064ZM413.215 166.087H380.815V198.485H413.215V166.087ZM499.967 274.404V263.612H489.205V274.377H499.992L499.967 274.404ZM586.608 361.16H575.885V371.884H586.608V361.16ZM521.665 361.096H510.875V371.856H521.64V361.071L521.665 361.096ZM499.912 350.321H489.187V361.045H499.912V350.321ZM554.175 252.7V263.564L554.148 263.539H564.936V252.725H554.148L554.175 252.7ZM564.985 328.564H575.776V317.804H565.011V328.591L564.985 328.564ZM456.615 317.749V306.887L456.641 306.912H445.855V317.724H456.641L456.615 317.749ZM489.124 220.191H499.915V209.431H489.149V220.217C489.149 220.217 489.124 220.192 489.124 220.191ZM575.885 306.843H586.608V296.103H575.885V306.843ZM564.984 285.215H575.776V274.455H565.011V285.241L564.984 285.215ZM413.263 241.865H434.892V231.103H413.289V241.892C413.289 241.892 413.263 241.867 413.263 241.865ZM586.608 231.083H565.055V241.909H575.859V263.507H586.608V231.083ZM391.593 241.891V231.105H359.167V252.66H369.957V241.865H391.619L391.593 241.891ZM456.643 339.423H445.86V371.876H478.243V361.045H467.433V350.227H456.616V339.396C456.616 339.396 456.643 339.421 456.643 339.423V339.423ZM413.289 241.892C406.057 241.892 398.825 241.892 391.593 241.891L391.619 241.865V274.316H369.896V263.612H359.164V285.176H402.461V263.511H434.904V252.695H413.263V241.867L413.289 241.892ZM467.507 165.951H478.229V155.227H467.507V165.951ZM456.637 187.705V166.036H445.839V144.411H499.916V165.988H489.208V176.839H499.931V198.461H489.148V187.708H478.328V176.905H467.509V187.68H456.612L456.637 187.705ZM424.073 306.964H370.001V361.037H424.073V306.964ZM359.157 296.103H434.905V371.851H359.157V296.103ZM575.797 155.244H521.725V209.315H575.797V155.244ZM586.608 220.163H510.863V144.415H586.608V220.163ZM369.995 209.292H424.068V155.22H369.995V209.292ZM359.132 144.389H434.88V220.137H359.132V144.389ZM521.691 252.648H532.413V241.925H521.691V252.648ZM499.936 306.965H489.213V317.687H499.936V306.965ZM521.64 306.915V296.124H510.881V306.889H521.667V317.676H543.256V306.915H521.64ZM456.643 339.421C456.641 332.189 456.641 324.957 456.641 317.724L456.615 317.749H467.4V306.887H456.615L456.641 306.912L456.612 296.052H478.336V285.268H489.147V295.999H499.992V274.377L499.967 274.404C500.424 274.399 500.883 274.388 501.34 274.388C511.725 274.383 522.112 274.377 532.497 274.373V285.164H543.257V274.399H532.471V263.505H510.779V241.937H478.259V252.745H456.688V274.431H467.415V285.248H456.637V296.079H445.811V285.231H413.321V274.424H445.759V187.705H456.637L456.612 187.68C456.617 198.113 456.623 208.547 456.628 218.981V220.136H467.453V198.573H478.261V220.217H489.149L489.124 220.192V231.017H543.291V241.831H554.148V252.725L554.175 252.7H543.389V263.564H554.175L554.148 263.539V285.241H565.011L564.984 285.215V306.86H554.224V328.591H565.011L564.985 328.564V339.392H586.625V350.207H554.185V371.873H543.369V361.071H521.64L521.665 361.096V350.268H510.861V339.451H532.428V328.623H478.347V339.396H456.616L456.643 339.421Z" fill="#324D90"/>
    <path d="M183.67 368.515L258.136 352.741L270.097 391.817C270.097 391.817 187.961 395.804 183.814 396.283C179.668 396.761 169.938 393.415 169.938 382.088C169.938 379.217 171.329 376.705 173.068 374.687C175.805 371.508 179.566 369.384 183.67 368.515Z" fill="#1F94F1"/>
    <path d="M179.94 373.741C186.249 368.83 194.573 370.125 199.876 376.554C202.881 380.201 206.215 384.751 207.897 388.753C211.393 397.069 206.499 404.535 200.487 406.402C194.473 408.269 180.003 397.865 174.829 392.773C172.581 384.919 174.077 378.305 179.94 373.741Z" fill="#1F94F1"/>
    <path d="M206.512 396.582C206.512 400.653 202.626 403.953 197.831 403.953C193.036 403.953 189.151 400.653 189.151 396.582C189.151 392.512 193.036 389.212 197.831 389.212C202.626 389.212 206.512 392.512 206.512 396.582Z" fill="#FFD6C6"/>
    <path d="M272.057 251.929C272.057 251.929 271.27 253.869 270.613 254.831C269.954 255.793 265.241 258.939 263.855 260.192C262.47 261.447 261.81 262.883 262.087 263.903C262.365 264.923 264.07 270.639 264.082 271.769C264.093 272.901 263.115 279.127 263.115 279.127L270.405 279.421C270.405 279.421 272.386 273.924 272.946 273.116C273.506 272.307 276.081 269.869 276.391 268.165C276.703 266.463 275.506 264.379 275.887 262.872C276.267 261.365 276.453 259.689 276.453 259.689C276.453 259.689 273.726 261.08 273.135 263.187C272.545 265.295 272.779 266.483 272.779 266.483L271.331 264.455L270.909 259.775C270.909 259.775 272.382 256.524 273.125 254.989C273.869 253.456 273.525 251.528 272.057 251.929Z" fill="#E5B18D"/>
    <path d="M261.316 274.892L273.224 276.596L268.917 300.438C268.917 300.438 289.841 287.5 296.59 283.391C303.338 279.28 315.858 284.256 312.222 296.952C308.585 309.648 267.445 323.478 261.218 325.988C254.992 328.5 250.12 325.396 249.662 317.979C249.205 310.562 261.316 274.892 261.316 274.892Z" fill="#4658E9"/>
    <path d="M272.456 268.867C271.408 268.772 270.634 267.844 270.73 266.795L272.997 241.883C273.093 240.835 274.02 240.062 275.069 240.158C276.117 240.252 276.89 241.179 276.794 242.228L274.528 267.142C274.432 268.19 273.505 268.963 272.456 268.867Z" fill="#FFDC8A"/>
    <path d="M270.14 251.722C270.14 251.722 269.835 253.924 269.407 255.086C268.977 256.249 264.941 260.713 263.84 262.365C262.74 264.016 262.433 265.668 262.984 266.646C263.535 267.625 266.776 273.069 267.083 274.23C267.388 275.392 268 282.06 268 282.06L275.584 280.469C275.584 280.469 276.196 274.292 276.561 273.313C276.929 272.334 278.947 269.154 278.825 267.318C278.703 265.484 276.929 263.649 276.929 261.998C276.929 260.346 276.685 258.573 276.685 258.573C276.685 258.573 274.239 260.713 274.177 263.037C274.116 265.361 274.667 266.524 274.667 266.524L272.648 264.812L270.997 260.102C270.997 260.102 271.669 256.37 272.036 254.597C272.403 252.824 271.547 250.928 270.14 251.722Z" fill="#FFD6C6"/>
    <path d="M293.955 227.469C288.66 233.357 287.426 240.189 290.672 248.155C293.919 256.12 321.396 260.789 327.45 256.141C333.503 251.495 331.055 238.647 325.482 236.849C319.908 235.052 309.354 210.344 293.955 227.469Z" fill="#1B2644"/>
    <path d="M332.009 235.924C331.444 240.646 327.401 241.978 322.678 241.413C317.956 240.848 314.342 238.6 314.906 233.877C315.472 229.154 319.514 227.822 324.237 228.388C328.96 228.952 332.574 231.201 332.009 235.924Z" fill="#1B2644"/>
    <path d="M330.724 227.185C330.285 230.85 327.148 231.883 323.484 231.445C319.819 231.006 317.015 229.262 317.453 225.597C317.891 221.933 321.029 220.898 324.693 221.337C328.359 221.775 331.163 223.519 330.724 227.185Z" fill="#1B2644"/>
    <path d="M167.672 401.469C168.777 396.849 169.141 395.963 169.141 395.963L154.866 391.897L151.926 398.311C156.496 401.421 162.23 402.579 167.672 401.469Z" fill="#FFD6C6"/>
    <path d="M167.672 401.469C162.23 402.579 156.496 401.421 151.926 398.311L151.358 399.553C151.358 399.553 131.422 409.998 130.386 411.035C130.213 411.207 130.086 411.427 129.996 411.673C129.438 413.187 130.642 414.783 132.256 414.783H164.754C164.754 414.783 168.184 411.354 166.749 405.453C167.102 403.885 167.408 402.571 167.672 401.469Z" fill="#18151E"/>
    <path d="M320.747 273.007C307.45 270.158 290.342 285.267 285.111 289.354C279.881 293.44 274.813 296.22 277.427 303.903C280.043 311.586 281.351 312.894 281.351 312.894L278.899 325.971L262.553 347.223C262.553 347.223 275.355 371.844 301.183 368.902C302.603 370.451 305.005 371.87 306.097 365.954C311.113 338.776 317.151 321.067 317.151 321.067C317.151 321.067 326.795 308.643 329.085 296.383C331.373 284.123 329.902 274.968 320.747 273.007Z" fill="#6776ED"/>
    <path d="M301.294 367.525C302.571 368.041 303.362 369.331 303.235 370.701C302.759 375.82 300.69 387.884 291.681 395.911C279.986 406.331 260.847 403.779 249.575 393.359C238.306 382.939 205.77 346.576 205.77 346.576L171.321 397.399C171.321 397.399 155.797 396.761 149.844 388.893C157.924 369.116 189.609 312.764 189.609 312.764C189.609 312.764 195.138 302.132 204.282 301.068C213.426 300.005 224.483 311.488 224.483 311.488C224.483 311.488 280.739 359.227 301.294 367.525" fill="#1F94F1"/>
    <path d="M202.614 394.154C202.614 394.154 193.105 394.338 184.448 397.605C179.454 399.489 175.06 402.422 172.237 404.567C170.581 405.825 170.968 408.415 172.914 409.146C176.208 410.379 181.401 411.718 187.933 411.389C199.545 410.803 204.758 409.802 207.028 405.433C209.296 401.063 207.494 395.594 202.614 394.154Z" fill="#18151E"/>
    <path d="M265.045 278.166L277.753 276.826L280.305 305.534C280.305 305.534 301.994 286.874 308.534 281.61C315.073 276.347 328.947 279.856 326.875 293.731C324.801 307.607 280.985 329.483 274.774 332.99C268.563 336.498 263.003 333.903 261.494 326.154C259.986 318.404 265.045 278.166 265.045 278.166Z" fill="#6776ED"/>
    <path d="M308.67 240.991C298.028 243.868 295.812 247.617 295.576 254.047C295.339 260.476 297.404 269.628 299.7 270.293C301.998 270.959 307.799 266.589 307.799 266.589C307.799 266.589 307.426 273.869 305.499 277.553C303.572 281.24 299.055 285.348 299.055 285.348L320.866 276.696C320.866 276.696 319.156 267.78 319.22 262.519C319.282 257.256 319.4 238.089 308.67 240.991Z" fill="#FFD6C6"/>
    <path d="M299.054 244.011C299.054 244.011 299.137 249.253 302.002 250.727C304.869 252.201 308.471 250.973 308.471 250.973L308.963 253.593L310.11 252.774L310.765 250.809C310.765 250.809 312.239 247.206 314.369 248.433C316.498 249.662 317.562 257.442 317.562 257.442L319.282 258.917C319.282 258.917 329.355 257.606 330.583 249.743C331.813 241.882 311.338 231.071 299.054 244.011Z" fill="#1B2644"/>
    <path d="M307.898 266.424L313.085 263.312L307.244 270.954L307.898 266.424Z" fill="#FFD6C6"/>
    <path d="M273.667 333.141L316.471 306.825L267.333 341.221L273.667 333.141Z" fill="#6776ED"/>
    <path d="M279.973 304.103L280.305 305.534L307.517 285.369L279.973 304.103Z" fill="#6776ED"/>
    <path d="M313.795 283.075C316.083 282.753 318.531 282.974 320.692 284.131C321.747 284.734 322.692 285.645 323.233 286.782C323.744 287.85 324.177 288.965 324.44 290.131C324.999 292.447 324.911 294.965 324.044 297.187C323.207 299.413 321.739 301.377 319.855 302.73C321.484 301.095 322.699 299.095 323.353 296.954C323.985 294.803 324.024 292.523 323.48 290.359C323.209 289.279 322.835 288.219 322.359 287.202C321.905 286.247 321.18 285.43 320.259 284.843C319.353 284.234 318.291 283.827 317.192 283.565C316.093 283.279 314.952 283.131 313.795 283.075Z" fill="#A3B7E7"/>
    <path d="M194.719 372.416C196.901 373.34 198.989 374.502 200.927 375.892C202.881 377.261 204.686 378.874 206.222 380.766C206.967 381.7 207.646 382.866 208.009 384.03C208.381 385.201 208.646 386.381 208.797 387.57C209.115 389.944 209.135 392.332 208.914 394.692C208.615 392.342 208.246 390.022 207.769 387.753C207.233 385.486 206.645 383.29 205.175 381.589C203.761 379.806 202.071 378.21 200.295 376.71C198.51 375.216 196.649 373.786 194.719 372.416Z" fill="#2D4A8E"/>
    <g opacity="0.399994">
    <g opacity="0.399994">
    <path opacity="0.399994" d="M218.96 361.06L241.455 393.162L248.769 392.836L218.96 361.06Z" fill="#C74C63"/>
    </g>
    </g>
    <path d="M198.015 324.983C198.348 326.597 198.777 328.167 199.235 329.723C199.703 331.275 200.227 332.806 200.841 334.298C201.429 335.801 202.116 337.263 202.875 338.693C203.612 340.135 204.481 341.505 205.351 342.91C204.183 341.755 203.072 340.501 202.201 339.087C201.284 337.703 200.535 336.21 199.915 334.67C198.692 331.591 197.932 328.29 198.015 324.983Z" fill="#2D4A8E"/>
    <path d="M204.648 321.707C204.422 323.339 204.301 324.961 204.21 326.581C204.132 328.2 204.114 329.817 204.193 331.429C204.244 333.043 204.401 334.651 204.637 336.252C204.849 337.859 205.209 339.44 205.56 341.055C204.845 339.575 204.22 338.021 203.87 336.399C203.47 334.787 203.264 333.129 203.194 331.471C203.073 328.16 203.462 324.795 204.648 321.707Z" fill="#2D4A8E"/>
    <g opacity="0.5">
    <g opacity="0.5">
    <path opacity="0.5" d="M164.02 388.807L199.141 329.12C199.141 329.12 202.909 330.594 204.383 328.466C208.313 332.559 260.399 385.792 280.381 386.775" stroke="#C74C63" stroke-width="1.33333" stroke-miterlimit="10" stroke-linecap="round"/>
    </g>
    </g>
    <path d="M310.902 313.888L302.275 326.226C302.275 326.226 298.016 347.082 293.976 358.766" stroke="#A3B7E7" stroke-width="1.33333" stroke-miterlimit="10" stroke-linecap="round"/>
    <path d="M737.85 160.907C737.85 160.907 738.121 163.317 736.758 165.82C735.397 168.323 732.407 169.707 730.643 170.297C728.878 170.888 724.021 171.011 722.745 171.132C721.469 171.253 718.183 172.487 718.183 172.487L715.511 166.449C715.511 166.449 721.669 160.4 722.801 159.74C723.934 159.08 724.045 156.183 725.454 155.716C726.862 155.252 728.815 154.515 728.691 153.017C730.917 152.824 731.091 154.647 730.99 155.135C730.889 155.623 732.615 156.948 732.615 156.948L737.85 160.907Z" fill="#F4A177"/>
    <path d="M668.727 404.03L667.436 402.178L668.882 399.114L656.624 391.54C656.624 391.54 653.384 393.765 651.491 395.938C655.988 400.712 662.508 404.682 668.727 404.03Z" fill="#F9CBB4"/>
    <path d="M678.738 411.433L669.981 406.4L668.766 404.087L668.727 404.031C662.509 404.683 655.989 400.712 651.49 395.939C651.081 396.409 650.731 396.879 650.494 397.323C649.165 399.808 648.877 402.873 652.691 406.052C655.29 408.217 659.683 411.561 662.223 413.476C663.491 414.432 665.065 414.888 666.647 414.763L678.197 413.843C679.463 413.741 679.839 412.067 678.738 411.433Z" fill="#0A2844"/>
    <path d="M704.131 401.613L702.505 397.177L688.889 400.213L691.389 406.262C696.006 406.213 700.538 404.628 704.131 401.613Z" fill="#F9CBB4"/>
    <path d="M717.051 410.831L706.581 404.55L704.413 402.382L704.132 401.613C700.539 404.629 696.007 406.213 691.389 406.262L692.617 409.233C692.617 409.233 692.965 411.835 695.913 412.877C697.932 413.587 709.293 413.691 716.264 413.685C717.821 413.683 718.387 411.633 717.051 410.831Z" fill="#19305A"/>
    <path d="M629.836 256.625L658.696 325.197C658.696 325.197 661.162 340.736 663.629 348.383C666.096 356.029 686.074 399.936 686.074 399.936C686.074 399.936 694.954 404.869 704.574 397.716L686.568 327.171C686.568 327.171 687.061 319.277 684.841 315.824C683.609 305.711 669.796 245.772 669.796 245.772L629.836 256.625Z" fill="#3E41A8"/>
    <path d="M618.288 238.891C618.288 238.891 614.472 252.075 623.492 264.391C632.512 276.706 686.114 318.511 686.114 318.511L687.847 319.552L654.543 390.499C654.543 390.499 657.491 402.295 671.022 400.387C694.266 368.122 722.02 329.266 724.275 322.327C726.53 315.39 717.163 301.686 717.163 301.686L671.715 240.452L671.542 235.595L618.288 238.891Z" fill="#6776ED"/>
    <path d="M660.217 142.831C650.119 147.295 653.749 161.176 656.939 168.631C660.129 176.084 673.942 192.873 677.234 194.369C680.526 195.867 683.797 194.38 685.681 193.36C687.565 192.341 721.969 172.865 721.969 172.865C720.642 169.065 718.745 165.927 715.797 164.003L688.17 172.857L677.134 151.851C677.134 151.851 671.102 138.019 660.217 142.831Z" fill="#2D4A8E"/>
    <path d="M665.858 98.908C660.787 104.427 662.203 116.135 670.109 117.253C671.199 119.019 675.905 124.832 679.317 128.579C681.221 130.669 684.55 130.544 686.274 128.303C689.881 123.613 692.513 116.227 692.854 110.093C693.302 102.04 688.155 94.6573 678.014 94.5827C668.751 94.5147 665.858 98.908 665.858 98.908Z" fill="#F9CBB4"/>
    <path d="M667.275 115.836C667.275 115.836 666.509 122.812 665.127 127.002C663.752 131.169 659.519 135.524 659.519 135.524C659.519 135.524 669.811 143.28 679.877 143.354C678.536 137.91 678.685 132.392 679.505 130.528C680.325 128.662 684.128 124.188 684.128 124.188C679.021 117.478 673.475 114.137 667.275 115.836Z" fill="#F9CBB4"/>
    <path d="M669.604 133.499C658.441 131.382 643.725 135.41 637.609 156.32C635.14 164.768 635.317 179.798 633.024 192.027C630.731 204.256 616.208 229.044 614.571 237.779C627.673 250.446 657.375 252.083 676.375 244.222C677.248 222.492 682.816 203.711 682.816 203.711C682.816 203.711 690.241 181.108 690.679 168.114C691.115 155.119 682.271 135.902 669.604 133.499Z" fill="#1E95F3"/>
    <path d="M725.5 166.821C724.727 166.375 724.46 165.386 724.907 164.613L740.719 137.175C741.164 136.402 742.153 136.135 742.927 136.582C743.7 137.027 743.967 138.017 743.52 138.791L727.708 166.227C727.263 167.001 726.275 167.266 725.5 166.821Z" fill="#687AE0"/>
    <path d="M691.503 88.4164C693.313 87.5057 695.484 88.4924 696.003 90.451C697.036 94.3604 696.616 97.9644 694.345 100.623C691.288 104.202 690.989 104.202 686.963 103.83C682.936 103.456 681.071 103.456 679.952 104.351C678.835 105.247 677.641 110.168 677.641 110.168L675.105 109.722C675.105 109.722 675.851 107.334 674.211 104.948C672.569 102.562 668.468 106.14 667.797 108.751C667.125 111.362 669.064 117.402 669.064 117.402C669.064 117.402 666.901 117.85 665.187 116.731C663.472 115.612 661.011 111.287 660.637 105.023C660.391 100.87 661.608 95.3284 664.963 93.0164C668.319 90.7044 671.376 92.047 676 91.9724C679.617 91.9137 687.021 90.6684 691.503 88.4164Z" fill="#3A3647"/>
    <path d="M714.954 170.902C714.954 170.902 718.676 167.209 719.295 166.525C719.912 165.841 719.367 161.938 720.327 159.589C721.287 157.239 725.59 155.641 726.891 154.258C728.194 152.875 728.504 150.733 728.504 150.733C728.504 150.733 729.782 150.879 730.046 152.139C730.312 153.399 728.728 157.057 728.728 157.057L735.344 152.962L737.163 150.086C737.163 150.086 738.604 150.682 739.059 152.179C739.512 153.677 739.339 161.402 737.995 163.901C736.652 166.399 730.499 170.397 728.308 171.829C726.116 173.259 721.948 175.679 720.915 177.35C716.555 174.737 714.954 170.902 714.954 170.902Z" fill="#F9CBB4"/>
    <path d="M653.498 170.734L682.898 201.527L680.114 214.711C680.114 214.711 663.407 200.381 653.498 170.734Z" fill="#29488B"/>
    <path d="M657.484 141.907C646.258 146.62 649.974 162.001 653.337 170.287C656.7 178.571 673.264 200.048 675.61 203.273C679.104 208.079 685.305 205.015 687.402 203.929C689.501 202.844 725.02 175.547 725.02 175.547C723.541 171.791 720.697 169.119 717.777 166.508L687.184 181.653L675.95 152.201C675.95 152.201 669.585 136.825 657.484 141.907Z" fill="#1F94F1"/>
    <path d="M671.433 118.485C671.433 118.485 674.791 126.674 680.278 129.623C679.131 130.359 679.049 133.145 679.049 133.145C679.049 133.145 670.942 126.593 671.433 118.485" fill="#F9CBB4"/>
    <g opacity="0.5">
    <g opacity="0.5">
    <path opacity="0.5" d="M644.653 253.121C644.653 253.121 660.869 249.681 661.524 265.241C674.549 279.582 693.401 304.985 700.313 314.425C701.948 316.655 702.121 319.627 700.768 322.038L661.688 391.689" stroke="#3E41A8" stroke-miterlimit="10" stroke-linecap="round"/>
    </g>
    </g>
    <path d="M640.886 239.526L651.15 206.986L653.115 172.918" stroke="#2A478B" stroke-width="1.33333" stroke-miterlimit="10" stroke-linecap="round"/>
    <path d="M687.184 181.654L676.701 154.136L689.587 177.504L688.932 180.343L687.184 181.654Z" fill="#294992"/>
    <path d="M652.897 162.982C651.842 159.952 651.941 156.486 653.177 153.414C654.422 150.335 656.809 147.772 659.63 146.083C660.38 145.71 661.066 145.22 661.894 144.998C662.296 144.864 662.69 144.712 663.097 144.599L664.36 144.402C666.05 144.259 667.797 144.515 669.308 145.258C672.32 146.759 674.534 149.343 675.95 152.202C675.014 150.906 673.964 149.708 672.773 148.687C671.61 147.644 670.31 146.764 668.898 146.199C667.477 145.663 665.973 145.463 664.504 145.656L663.406 145.847C663.05 145.954 662.701 146.098 662.348 146.219C661.621 146.414 660.997 146.886 660.322 147.222C657.669 148.779 655.48 151.08 654.113 153.824C653.414 155.196 653.02 156.718 652.822 158.263C652.592 159.812 652.638 161.406 652.897 162.982Z" fill="#29478F"/>
    <path d="M572.172 417.379H518.1C511.066 423.963 504.058 430.522 497.056 437.075H551.127C558.147 430.506 565.147 423.954 572.172 417.379ZM557.716 441.027H481.972C491.8 431.829 501.612 422.646 511.454 413.435H587.199C577.39 422.615 567.568 431.807 557.716 441.027Z" fill="#324D90"/>
    <path d="M512.083 433.123C516.297 429.179 520.486 425.259 524.694 421.32H557.091C552.901 425.243 548.705 429.171 544.482 433.123H512.083Z" fill="#324D90"/>
    <path d="M761.543 55.8579C761.543 34.9966 744.632 18.0859 723.771 18.0859C702.911 18.0859 686 34.9966 686 55.8579C686 73.1966 697.687 87.7966 713.61 92.2352L726.502 138.227V93.5206C746.087 92.1192 761.543 75.7992 761.543 55.8579Z" fill="#D4D7F6"/>
    <path d="M254.448 154.753C256.854 134.03 275.602 119.182 296.323 121.588C317.044 123.994 331.892 142.742 329.487 163.464C327.488 180.686 314.196 193.841 297.866 196.414L279.758 240.613L284.914 196.205C265.62 192.556 252.148 174.561 254.448 154.753Z" fill="#2C4889" fill-opacity="0.8"/>
    <path d="M553.213 487.838C545.321 487.838 537.428 487.838 529.536 487.838L529.543 487.856C538.861 480.215 548.18 472.572 557.485 464.943H533.777C530.668 467.492 527.621 469.991 524.561 472.5H512.851C519.08 467.391 525.256 462.327 531.419 457.274H578.668C572.451 462.372 566.273 467.438 560.012 472.572H595.419C592.285 475.142 589.237 477.64 586.104 480.21H562.488C559.321 482.806 556.241 485.331 553.163 487.856L553.213 487.838Z" fill="#324D90"/>
    <path d="M479.166 481.913C476.067 484.454 472.969 486.994 469.878 489.529H434.491C440.725 484.417 446.899 479.354 453.053 474.307H464.827C461.717 476.859 458.65 479.374 455.531 481.931H479.171L479.166 481.913Z" fill="#324D90"/>
    <path d="M502.792 481.93H526.396C523.248 484.511 520.184 487.023 517.128 489.53H493.552C496.687 486.959 499.764 484.435 502.843 481.911L502.792 481.93Z" fill="#324D90"/>
    </svg>
    